<svg width="209" height="89" viewBox="0 0 209 89" fill="none" xmlns="http://www.w3.org/2000/svg">
<path d="M155 36.7241C154.464 35.0984 153.956 33.7249 153.562 32.2953C153.308 31.3984 152.8 31.1461 151.926 31.1741C149.162 31.2863 146.369 31.1461 143.634 31.4825C140.898 31.8188 139.036 31.006 137.795 28.5673C137.429 27.8386 136.808 27.1939 136.272 26.5492C135.539 25.6802 135.398 24.8113 135.821 23.7181C137.034 20.6348 138.077 17.4954 139.29 14.3841C139.685 13.375 139.488 12.7583 138.585 12.1697C136.921 11.0485 135.37 9.84319 133.762 8.72198C131.506 7.18033 132.126 7.0682 129.87 8.75001C127.388 10.6 124.906 12.422 122.452 14.328C121.662 14.9447 120.901 15.0288 119.97 14.6924C118.475 14.1318 116.98 13.5712 115.429 13.2348C114.104 12.9265 113.483 12.1697 113.145 10.9364C112.242 7.79699 111.227 4.68564 110.324 1.54626C110.07 0.649299 109.619 0.200816 108.688 0.172786C106.376 0.144756 104.091 0.144756 101.807 0.0326353C100.537 -0.0234251 99.8322 0.425058 99.4655 1.68641C98.6194 4.7417 97.6041 7.74093 96.7297 10.7962C96.3913 12.0015 95.8272 12.7023 94.5298 12.9826C92.8939 13.347 91.2581 13.8515 89.7068 14.4682C88.6351 14.8886 87.8453 14.6924 86.9992 14.0477C84.2352 11.9455 81.4429 9.89925 78.7071 7.76896C77.9738 7.20836 77.4097 7.20836 76.7046 7.74093C74.7303 9.17047 72.7278 10.572 70.7253 11.9174C69.8791 12.478 69.8509 13.0667 70.1894 13.9356C71.4304 17.1591 72.615 20.4106 73.7149 23.6621C73.9124 24.2507 73.7149 25.1477 73.3765 25.6802C72.3611 27.2499 71.1201 28.6795 70.0766 30.2211C69.4561 31.1181 68.7227 31.4825 67.6228 31.4264C64.1536 31.2863 60.6845 31.2022 57.1871 31.1741C56.7077 31.1741 55.9462 31.3984 55.8051 31.7347C55.1564 33.3044 54.677 34.9302 54.0565 36.7241C54.818 36.7241 55.3257 36.7241 55.8615 36.7241C61.0229 36.7241 66.2126 36.612 71.374 36.7802C73.4047 36.8362 74.7585 36.4438 75.4354 34.4256C75.661 33.7809 76.1687 33.2203 76.5354 32.6597C85.0531 19.5977 102.512 14.328 116.924 20.3825C124.398 23.5219 130.011 28.6234 133.875 35.715C134.101 36.1635 134.721 36.6961 135.144 36.6961C141.659 36.7521 148.203 36.7241 155 36.7241Z" fill="white"/>
<path d="M155 36.7241C148.174 36.7241 141.659 36.7522 135.116 36.6681C134.693 36.6681 134.072 36.1355 133.847 35.687C129.983 28.5954 124.37 23.4939 116.896 20.3545C102.512 14.328 85.053 19.5977 76.4789 32.6317C76.084 33.2204 75.5764 33.7529 75.3789 34.3976C74.702 36.4158 73.3482 36.8362 71.3175 36.7522C66.1561 36.584 60.9947 36.6961 55.8051 36.6961C55.2974 36.6961 54.7897 36.6961 54 36.6961C54.5923 34.9302 55.0718 33.2764 55.7487 31.7067C55.8897 31.3704 56.6512 31.1461 57.1307 31.1461C60.5998 31.1742 64.0972 31.2582 67.5663 31.3984C68.6945 31.4545 69.3996 31.0901 70.0201 30.1931C71.0919 28.6514 72.3047 27.2219 73.32 25.6522C73.6585 25.1196 73.8559 24.2227 73.6585 23.634C72.5585 20.3545 71.3457 17.131 70.1329 13.9076C69.7945 13.0386 69.8509 12.45 70.6688 11.8894C72.6995 10.544 74.6738 9.11442 76.6481 7.71291C77.3532 7.20837 77.9173 7.18034 78.6506 7.74094C81.3865 9.87123 84.2069 11.9174 86.9427 14.0197C87.7889 14.6644 88.5786 14.8886 89.6504 14.4401C91.2016 13.8235 92.8375 13.3189 94.4733 12.9546C95.7707 12.6742 96.3348 11.9735 96.6733 10.7682C97.5194 7.71291 98.5348 4.71369 99.4091 1.6584C99.7757 0.397042 100.481 -0.0514402 101.75 0.00462013C104.035 0.116741 106.347 0.116741 108.632 0.144771C109.591 0.144771 110.014 0.593253 110.268 1.51825C111.17 4.65763 112.186 7.76897 113.088 10.9083C113.427 12.1417 114.047 12.8985 115.373 13.2068C116.924 13.5712 118.419 14.1038 119.914 14.6644C120.844 15.0288 121.606 14.9167 122.396 14.3C124.849 12.422 127.331 10.572 129.813 8.722C132.07 7.04019 131.477 7.15231 133.706 8.69397C135.313 9.81517 136.893 11.0205 138.529 12.0856C139.431 12.6742 139.629 13.2909 139.234 14.3C138.049 17.3833 136.977 20.5227 135.765 23.634C135.341 24.7272 135.483 25.5962 136.216 26.4651C136.752 27.1098 137.344 27.7545 137.739 28.4833C138.98 30.9219 140.841 31.7348 143.577 31.3984C146.313 31.062 149.105 31.2022 151.869 31.0901C152.744 31.062 153.251 31.3423 153.505 32.2113C153.985 33.7249 154.492 35.0984 155 36.7241Z" fill="#FF3811"/>
<path d="M126.344 46.1983C123.016 42.9187 119.66 39.6112 116.304 36.2756C115.711 35.687 115.345 36.0794 114.922 36.4998C113.342 38.0976 111.763 39.6953 110.155 41.2369C109.14 42.218 108.04 43.171 106.968 44.124C107.052 44.2642 107.137 44.3763 107.222 44.5165C110.352 43.8998 113.088 44.5445 115.345 46.7589C117.573 48.9733 118.165 51.7482 117.601 54.7475C120.534 51.8884 123.383 49.0854 126.344 46.1983Z" fill="white"/>
<path d="M102.032 44.3483C101.609 43.8718 101.412 43.5634 101.158 43.3112C98.9014 41.0688 96.5886 38.8824 94.3887 36.5839C93.599 35.7711 93.1195 35.7991 92.358 36.5839C89.4247 39.5551 86.4915 42.4703 83.4736 45.3574C82.7121 46.0862 82.8813 46.5346 83.53 47.1793C85.8992 49.5058 88.2401 51.8604 90.6093 54.1869C90.8067 54.3831 91.0888 54.4952 91.4272 54.7194C90.4401 47.9922 95.1784 43.3672 102.032 44.3483Z" fill="white"/>
<path d="M91.0606 33.3604C87.4786 36.9763 84.0095 40.5081 80.5685 43.9838C80.8224 44.3202 81.1608 44.7967 81.4711 45.1891C85.1095 41.5732 88.6068 38.1255 92.3298 34.4536C91.9349 34.1172 91.4836 33.7248 91.0606 33.3604Z" fill="white"/>
<path d="M131.083 41.5733C130.998 41.4332 130.942 41.265 130.829 41.1249C127.642 37.9575 124.483 34.8181 121.296 31.6507C120.76 31.1181 120.365 31.0901 119.773 31.6507C119.152 32.2673 119.265 32.6878 119.829 33.2484C122.678 36.0234 125.47 38.8264 128.29 41.6294C128.742 42.0779 129.221 42.4983 129.87 43.115C130.293 42.5824 130.631 42.162 131.083 41.5733Z" fill="white"/>
<path d="M128.826 43.8157C125.555 40.5642 122.339 37.3968 119.124 34.1733C118.588 33.6408 118.137 33.2203 117.404 34.0052C116.698 34.762 117.093 35.2105 117.657 35.743C120.534 38.5741 123.383 41.4051 126.231 44.2362C127.501 45.5255 127.529 45.5255 128.826 43.8157Z" fill="white"/>
<path d="M89.876 32.3233C88.6068 30.7817 88.635 30.7817 87.2812 32.0991C84.5172 34.846 81.7532 37.565 79.0173 40.3119C77.6917 41.6293 77.7199 41.7975 79.2994 42.6945C82.8249 39.2468 86.3223 35.7991 89.876 32.3233Z" fill="white"/>
<path d="M126.344 46.1983C123.383 49.1134 120.534 51.8884 117.601 54.7755C118.165 51.7763 117.573 49.0293 115.345 46.7869C113.088 44.5445 110.324 43.9278 107.222 44.5445C107.137 44.4043 107.052 44.2922 106.968 44.1521C108.04 43.199 109.111 42.274 110.155 41.265C111.763 39.6953 113.342 38.1256 114.922 36.5279C115.345 36.1074 115.711 35.715 116.304 36.3036C119.66 39.5831 123.016 42.8907 126.344 46.1983ZM118.644 41.6574C118.052 42.4422 117.347 42.9748 117.403 43.3672C117.488 43.8437 118.221 44.2361 118.673 44.6566C119.068 44.2361 119.744 43.8157 119.773 43.3672C119.829 42.9187 119.209 42.4142 118.644 41.6574Z" fill="#444444"/>
<path d="M102.032 44.3483C95.1502 43.3672 90.4401 47.9922 91.4272 54.7475C91.0888 54.5232 90.8067 54.4111 90.6093 54.2149C88.2401 51.8884 85.8992 49.5338 83.53 47.2073C82.8813 46.5627 82.7121 46.1142 83.4736 45.3854C86.4633 42.4983 89.4247 39.5551 92.358 36.6119C93.1195 35.8271 93.599 35.7991 94.3887 36.6119C96.5886 38.9104 98.9014 41.0968 101.158 43.3392C101.412 43.5634 101.637 43.8718 102.032 44.3483ZM92.1887 43.4513C91.399 42.8066 90.8913 42.1059 90.5247 42.1619C90.017 42.246 89.5939 42.9468 89.1427 43.3672C89.5657 43.7877 89.9324 44.4604 90.4119 44.5445C90.8067 44.6005 91.3426 43.9839 92.1887 43.4513Z" fill="#444444"/>
<path d="M91.0606 33.3604C91.4836 33.7248 91.9349 34.0892 92.3298 34.4536C88.635 38.1255 85.1377 41.5732 81.4711 45.1891C81.1608 44.7687 80.7942 44.2922 80.5685 43.9838C84.0095 40.5081 87.5068 36.9763 91.0606 33.3604Z" fill="#444444"/>
<path d="M131.083 41.5733C130.631 42.162 130.293 42.5824 129.87 43.143C129.221 42.5264 128.742 42.1059 128.29 41.6574C125.47 38.8544 122.678 36.0514 119.829 33.2764C119.237 32.7158 119.124 32.2953 119.773 31.6787C120.337 31.1181 120.76 31.1461 121.296 31.6787C124.455 34.8461 127.642 37.9855 130.829 41.1529C130.942 41.237 130.998 41.4332 131.083 41.5733Z" fill="#444444"/>
<path d="M128.826 43.8157C127.557 45.5255 127.529 45.5255 126.231 44.2362C123.383 41.4051 120.534 38.546 117.657 35.743C117.093 35.2105 116.698 34.762 117.404 34.0052C118.137 33.2203 118.588 33.6408 119.124 34.1733C122.339 37.3968 125.555 40.5642 128.826 43.8157Z" fill="#444444"/>
<path d="M89.876 32.3233C86.3223 35.8271 82.8249 39.2468 79.2994 42.7225C77.7199 41.8255 77.6917 41.6574 79.0173 40.3399C81.7814 37.593 84.5454 34.8741 87.2812 32.1271C88.635 30.7817 88.635 30.7817 89.876 32.3233Z" fill="#444444"/>
<path d="M118.645 41.6574C119.18 42.4423 119.801 42.9188 119.773 43.3673C119.744 43.8157 119.068 44.2362 118.673 44.6566C118.221 44.2362 117.488 43.8718 117.404 43.3673C117.347 42.9748 118.052 42.4423 118.645 41.6574Z" fill="white"/>
<path d="M92.1888 43.4513C91.3426 43.9839 90.835 44.6006 90.3837 44.5165C89.9042 44.4604 89.5376 43.7597 89.1145 43.3392C89.5658 42.9187 89.9888 42.218 90.4965 42.1339C90.8914 42.1059 91.3991 42.8347 92.1888 43.4513Z" fill="white"/>
<path d="M31.873 67.0371C31.2936 67.0371 30.7793 67.151 30.3301 67.3789C29.8874 67.6003 29.513 67.9225 29.207 68.3457C28.9076 68.7689 28.6797 69.2799 28.5234 69.8789C28.3672 70.4779 28.2891 71.1517 28.2891 71.9004C28.2891 72.9095 28.4128 73.7721 28.6602 74.4883C28.9141 75.1979 29.3047 75.7415 29.832 76.1191C30.3594 76.4902 31.0397 76.6758 31.873 76.6758C32.4525 76.6758 33.0319 76.6107 33.6113 76.4805C34.1973 76.3503 34.832 76.1647 35.5156 75.9238V78.4629C34.8841 78.7233 34.2624 78.9089 33.6504 79.0195C33.0384 79.1367 32.3516 79.1953 31.5898 79.1953C30.1185 79.1953 28.9076 78.8926 27.957 78.2871C27.013 77.6751 26.3132 76.8223 25.8574 75.7285C25.4017 74.6283 25.1738 73.3457 25.1738 71.8809C25.1738 70.8001 25.3203 69.8105 25.6133 68.9121C25.9062 68.0137 26.3359 67.2357 26.9023 66.5781C27.4688 65.9206 28.1686 65.4128 29.002 65.0547C29.8353 64.6966 30.7923 64.5176 31.873 64.5176C32.5827 64.5176 33.2923 64.6087 34.002 64.791C34.7181 64.9668 35.4017 65.2109 36.0527 65.5234L35.0762 67.9844C34.5423 67.7305 34.0052 67.5091 33.4648 67.3203C32.9245 67.1315 32.3939 67.0371 31.873 67.0371ZM42.8008 67.8574C44.2656 67.8574 45.3887 68.1764 46.1699 68.8145C46.9512 69.4525 47.3418 70.4225 47.3418 71.7246V79H45.2617L44.6855 77.5156H44.6074C44.2949 77.9062 43.9759 78.2253 43.6504 78.4727C43.3249 78.7201 42.9505 78.9023 42.5273 79.0195C42.1042 79.1367 41.5898 79.1953 40.9844 79.1953C40.3398 79.1953 39.7604 79.0716 39.2461 78.8242C38.7383 78.5768 38.3379 78.1992 38.0449 77.6914C37.752 77.1771 37.6055 76.526 37.6055 75.7383C37.6055 74.5794 38.0124 73.7266 38.8262 73.1797C39.64 72.6263 40.8607 72.3203 42.4883 72.2617L44.3828 72.2031V71.7246C44.3828 71.1517 44.2331 70.7318 43.9336 70.4648C43.6341 70.1979 43.2174 70.0645 42.6836 70.0645C42.1562 70.0645 41.6387 70.1393 41.1309 70.2891C40.623 70.4388 40.1152 70.6276 39.6074 70.8555L38.6211 68.8438C39.2005 68.5378 39.8483 68.2969 40.5645 68.1211C41.2871 67.9453 42.0326 67.8574 42.8008 67.8574ZM44.3828 73.9414L43.2305 73.9805C42.2669 74.0065 41.5964 74.179 41.2188 74.498C40.8477 74.8171 40.6621 75.237 40.6621 75.7578C40.6621 76.2135 40.7956 76.5391 41.0625 76.7344C41.3294 76.9232 41.6777 77.0176 42.1074 77.0176C42.7454 77.0176 43.2826 76.8288 43.7188 76.4512C44.1615 76.0736 44.3828 75.5365 44.3828 74.8398V73.9414ZM56.5117 67.877C56.6615 67.877 56.834 67.8867 57.0293 67.9062C57.2311 67.9193 57.3939 67.9388 57.5176 67.9648L57.293 70.7578C57.1953 70.7253 57.0553 70.7025 56.873 70.6895C56.6973 70.6699 56.5443 70.6602 56.4141 70.6602C56.0299 70.6602 55.6556 70.709 55.291 70.8066C54.9329 70.9043 54.6107 71.0638 54.3242 71.2852C54.0378 71.5 53.8099 71.7865 53.6406 72.1445C53.4779 72.4961 53.3965 72.929 53.3965 73.4434V79H50.418V68.082H52.6738L53.1133 69.918H53.2598C53.4746 69.5469 53.7415 69.2083 54.0605 68.9023C54.3861 68.5898 54.7539 68.3424 55.1641 68.1602C55.5807 67.9714 56.0299 67.877 56.5117 67.877ZM76.6289 79H73.6113V72.8379H67.957V79H64.9297V64.7227H67.957V70.3184H73.6113V64.7227H76.6289V79ZM82.9863 68.082V79H80.0078V68.082H82.9863ZM81.502 63.8047C81.9447 63.8047 82.3255 63.9089 82.6445 64.1172C82.9635 64.319 83.123 64.6999 83.123 65.2598C83.123 65.8132 82.9635 66.1973 82.6445 66.4121C82.3255 66.6204 81.9447 66.7246 81.502 66.7246C81.0527 66.7246 80.6686 66.6204 80.3496 66.4121C80.0371 66.1973 79.8809 65.8132 79.8809 65.2598C79.8809 64.6999 80.0371 64.319 80.3496 64.1172C80.6686 63.9089 81.0527 63.8047 81.502 63.8047ZM89.0996 63.8047V70.6016C89.0996 71.0117 89.0833 71.4219 89.0508 71.832C89.0182 72.2422 88.9824 72.6523 88.9434 73.0625H88.9824C89.1842 72.776 89.3893 72.4928 89.5977 72.2129C89.8125 71.9329 90.0404 71.6628 90.2812 71.4023L93.3379 68.082H96.6973L92.3613 72.8184L96.9609 79H93.5234L90.3789 74.5762L89.0996 75.6016V79H86.1211V63.8047H89.0996ZM108.445 73.5215C108.445 74.4329 108.322 75.2402 108.074 75.9434C107.833 76.6465 107.479 77.2422 107.01 77.7305C106.548 78.2122 105.988 78.5768 105.33 78.8242C104.679 79.0716 103.943 79.1953 103.123 79.1953C102.355 79.1953 101.648 79.0716 101.004 78.8242C100.366 78.5768 99.8092 78.2122 99.334 77.7305C98.8652 77.2422 98.5007 76.6465 98.2402 75.9434C97.9863 75.2402 97.8594 74.4329 97.8594 73.5215C97.8594 72.3105 98.0742 71.2852 98.5039 70.4453C98.9336 69.6055 99.5456 68.9674 100.34 68.5312C101.134 68.0951 102.081 67.877 103.182 67.877C104.204 67.877 105.109 68.0951 105.896 68.5312C106.691 68.9674 107.312 69.6055 107.762 70.4453C108.217 71.2852 108.445 72.3105 108.445 73.5215ZM100.896 73.5215C100.896 74.2376 100.975 74.8398 101.131 75.3281C101.287 75.8164 101.531 76.1842 101.863 76.4316C102.195 76.679 102.628 76.8027 103.162 76.8027C103.689 76.8027 104.116 76.679 104.441 76.4316C104.773 76.1842 105.014 75.8164 105.164 75.3281C105.32 74.8398 105.398 74.2376 105.398 73.5215C105.398 72.7988 105.32 72.1999 105.164 71.7246C105.014 71.2428 104.773 70.8815 104.441 70.6406C104.109 70.3997 103.676 70.2793 103.143 70.2793C102.355 70.2793 101.782 70.5495 101.424 71.0898C101.072 71.6302 100.896 72.4408 100.896 73.5215ZM123.719 75.7578C123.719 76.5 123.543 77.1283 123.191 77.6426C122.846 78.1504 122.329 78.5378 121.639 78.8047C120.949 79.0651 120.089 79.1953 119.061 79.1953C118.299 79.1953 117.645 79.1465 117.098 79.0488C116.557 78.9512 116.01 78.7884 115.457 78.5605V76.0996C116.049 76.3665 116.684 76.5879 117.361 76.7637C118.045 76.9329 118.644 77.0176 119.158 77.0176C119.738 77.0176 120.151 76.9329 120.398 76.7637C120.652 76.5879 120.779 76.36 120.779 76.0801C120.779 75.8978 120.727 75.735 120.623 75.5918C120.525 75.4421 120.311 75.276 119.979 75.0938C119.646 74.9049 119.126 74.6608 118.416 74.3613C117.732 74.0749 117.169 73.7852 116.727 73.4922C116.29 73.1992 115.965 72.8542 115.75 72.457C115.542 72.0534 115.438 71.5423 115.438 70.9238C115.438 69.9147 115.828 69.1562 116.609 68.6484C117.397 68.1341 118.449 67.877 119.764 67.877C120.441 67.877 121.085 67.9453 121.697 68.082C122.316 68.2188 122.951 68.4368 123.602 68.7363L122.703 70.8848C122.163 70.6504 121.652 70.4583 121.17 70.3086C120.695 70.1589 120.21 70.084 119.715 70.084C119.279 70.084 118.95 70.1426 118.729 70.2598C118.507 70.377 118.396 70.556 118.396 70.7969C118.396 70.9727 118.452 71.1289 118.562 71.2656C118.68 71.4023 118.901 71.5553 119.227 71.7246C119.559 71.8874 120.044 72.099 120.682 72.3594C121.3 72.6133 121.837 72.8802 122.293 73.1602C122.749 73.4336 123.1 73.7754 123.348 74.1855C123.595 74.5892 123.719 75.1133 123.719 75.7578ZM130.545 67.877C131.554 67.877 132.423 68.0723 133.152 68.4629C133.882 68.847 134.445 69.4069 134.842 70.1426C135.239 70.8783 135.438 71.7767 135.438 72.8379V74.2832H128.396C128.429 75.123 128.68 75.7839 129.148 76.2656C129.624 76.7409 130.281 76.9785 131.121 76.9785C131.818 76.9785 132.456 76.9069 133.035 76.7637C133.615 76.6204 134.21 76.4056 134.822 76.1191V78.4238C134.282 78.6908 133.715 78.8861 133.123 79.0098C132.537 79.1335 131.824 79.1953 130.984 79.1953C129.891 79.1953 128.921 78.9935 128.074 78.5898C127.234 78.1862 126.574 77.571 126.092 76.7441C125.617 75.9173 125.379 74.8757 125.379 73.6191C125.379 72.3431 125.594 71.2819 126.023 70.4355C126.46 69.5827 127.065 68.9447 127.84 68.5215C128.615 68.0918 129.516 67.877 130.545 67.877ZM130.564 69.9961C129.985 69.9961 129.503 70.1816 129.119 70.5527C128.742 70.9238 128.523 71.5065 128.465 72.3008H132.645C132.638 71.8581 132.557 71.4642 132.4 71.1191C132.251 70.7741 132.023 70.5007 131.717 70.2988C131.417 70.097 131.033 69.9961 130.564 69.9961ZM143.953 67.877C144.103 67.877 144.275 67.8867 144.471 67.9062C144.673 67.9193 144.835 67.9388 144.959 67.9648L144.734 70.7578C144.637 70.7253 144.497 70.7025 144.314 70.6895C144.139 70.6699 143.986 70.6602 143.855 70.6602C143.471 70.6602 143.097 70.709 142.732 70.8066C142.374 70.9043 142.052 71.0638 141.766 71.2852C141.479 71.5 141.251 71.7865 141.082 72.1445C140.919 72.4961 140.838 72.929 140.838 73.4434V79H137.859V68.082H140.115L140.555 69.918H140.701C140.916 69.5469 141.183 69.2083 141.502 68.9023C141.827 68.5898 142.195 68.3424 142.605 68.1602C143.022 67.9714 143.471 67.877 143.953 67.877ZM149.539 79L145.379 68.082H148.494L150.604 74.3027C150.721 74.6673 150.812 75.0514 150.877 75.4551C150.949 75.8587 150.997 76.2201 151.023 76.5391H151.102C151.121 76.194 151.167 75.8262 151.238 75.4355C151.316 75.0449 151.417 74.6673 151.541 74.3027L153.641 68.082H156.756L152.596 79H149.539ZM161.307 68.082V79H158.328V68.082H161.307ZM159.822 63.8047C160.265 63.8047 160.646 63.9089 160.965 64.1172C161.284 64.319 161.443 64.6999 161.443 65.2598C161.443 65.8132 161.284 66.1973 160.965 66.4121C160.646 66.6204 160.265 66.7246 159.822 66.7246C159.373 66.7246 158.989 66.6204 158.67 66.4121C158.357 66.1973 158.201 65.8132 158.201 65.2598C158.201 64.6999 158.357 64.319 158.67 64.1172C158.989 63.9089 159.373 63.8047 159.822 63.8047ZM168.875 79.1953C167.794 79.1953 166.873 79 166.111 78.6094C165.35 78.2122 164.77 77.6003 164.373 76.7734C163.976 75.9466 163.777 74.8887 163.777 73.5996C163.777 72.265 164.002 71.1777 164.451 70.3379C164.907 69.4915 165.535 68.8698 166.336 68.4727C167.143 68.0755 168.077 67.877 169.139 67.877C169.894 67.877 170.545 67.9518 171.092 68.1016C171.645 68.2448 172.127 68.4173 172.537 68.6191L171.658 70.9238C171.189 70.735 170.753 70.582 170.35 70.4648C169.946 70.3411 169.542 70.2793 169.139 70.2793C168.618 70.2793 168.185 70.403 167.84 70.6504C167.495 70.8913 167.238 71.2559 167.068 71.7441C166.899 72.2324 166.814 72.8444 166.814 73.5801C166.814 74.3027 166.906 74.9017 167.088 75.377C167.27 75.8522 167.534 76.207 167.879 76.4414C168.224 76.6693 168.644 76.7832 169.139 76.7832C169.757 76.7832 170.307 76.7018 170.789 76.5391C171.271 76.3698 171.74 76.1354 172.195 75.8359V78.3848C171.74 78.6712 171.261 78.8763 170.76 79C170.265 79.1302 169.637 79.1953 168.875 79.1953ZM179.236 67.877C180.245 67.877 181.115 68.0723 181.844 68.4629C182.573 68.847 183.136 69.4069 183.533 70.1426C183.93 70.8783 184.129 71.7767 184.129 72.8379V74.2832H177.088C177.12 75.123 177.371 75.7839 177.84 76.2656C178.315 76.7409 178.973 76.9785 179.812 76.9785C180.509 76.9785 181.147 76.9069 181.727 76.7637C182.306 76.6204 182.902 76.4056 183.514 76.1191V78.4238C182.973 78.6908 182.407 78.8861 181.814 79.0098C181.229 79.1335 180.516 79.1953 179.676 79.1953C178.582 79.1953 177.612 78.9935 176.766 78.5898C175.926 78.1862 175.265 77.571 174.783 76.7441C174.308 75.9173 174.07 74.8757 174.07 73.6191C174.07 72.3431 174.285 71.2819 174.715 70.4355C175.151 69.5827 175.757 68.9447 176.531 68.5215C177.306 68.0918 178.208 67.877 179.236 67.877ZM179.256 69.9961C178.676 69.9961 178.195 70.1816 177.811 70.5527C177.433 70.9238 177.215 71.5065 177.156 72.3008H181.336C181.329 71.8581 181.248 71.4642 181.092 71.1191C180.942 70.7741 180.714 70.5007 180.408 70.2988C180.109 70.097 179.725 69.9961 179.256 69.9961Z" fill="#444444"/>
</svg>
